<svg width="100%" height="100%" viewBox="0 0 300 120" xmlns="http://www.w3.org/2000/svg">
  <!-- 背景网格 -->
  <defs>
    <pattern id="grid" width="20" height="20" patternUnits="userSpaceOnUse">
      <path d="M 20 0 L 0 0 0 20" fill="none" stroke="#2a2a3a" stroke-width="0.5"/>
    </pattern>
  </defs>
  <rect width="100%" height="100%" fill="#17171f"/>
  <rect width="100%" height="100%" fill="url(#grid)" opacity="0.5"/>
  
  <!-- 波动上升走势图 -->
  <polyline
    points="0,80 20,75 40,85 60,65 80,90 100,70 120,75 140,55 160,65 180,45 200,60 220,35 240,50 260,30 280,35 300,25"
    fill="none"
    stroke="#4ade80"
    stroke-width="2"
    stroke-linecap="round"
    stroke-linejoin="round"
  />
  
  <!-- 面积填充 -->
  <path
    d="M0,80 20,75 40,85 60,65 80,90 100,70 120,75 140,55 160,65 180,45 200,60 220,35 240,50 260,30 280,35 300,25 L300,120 L0,120 Z"
    fill="url(#greenGradient)"
    opacity="0.2"
  />
  
  <defs>
    <linearGradient id="greenGradient" x1="0%" y1="0%" x2="0%" y2="100%">
      <stop offset="0%" style="stop-color:#4ade80;stop-opacity:0.8"/>
      <stop offset="100%" style="stop-color:#4ade80;stop-opacity:0"/>
    </linearGradient>
  </defs>
  
  <!-- 数据点 -->
  <circle cx="300" cy="25" r="4" fill="#4ade80"/>
</svg> 