<svg width="100%" height="100%" viewBox="0 0 300 120" xmlns="http://www.w3.org/2000/svg">
  <!-- 背景网格 -->
  <defs>
    <pattern id="grid" width="20" height="20" patternUnits="userSpaceOnUse">
      <path d="M 20 0 L 0 0 0 20" fill="none" stroke="#2a2a3a" stroke-width="0.5"/>
    </pattern>
  </defs>
  <rect width="100%" height="100%" fill="#17171f"/>
  <rect width="100%" height="100%" fill="url(#grid)" opacity="0.5"/>
  
  <!-- 下降走势图 -->
  <polyline
    points="0,30 20,35 40,45 60,40 80,55 100,50 120,60 140,65 160,70 180,65 200,75 220,85 240,80 260,90 280,95 300,100"
    fill="none"
    stroke="#ef4567"
    stroke-width="2"
    stroke-linecap="round"
    stroke-linejoin="round"
  />
  
  <!-- 面积填充 -->
  <path
    d="M0,30 20,35 40,45 60,40 80,55 100,50 120,60 140,65 160,70 180,65 200,75 220,85 240,80 260,90 280,95 300,100 L300,120 L0,120 Z"
    fill="url(#redGradient)"
    opacity="0.2"
  />
  
  <defs>
    <linearGradient id="redGradient" x1="0%" y1="0%" x2="0%" y2="100%">
      <stop offset="0%" style="stop-color:#ef4567;stop-opacity:0.8"/>
      <stop offset="100%" style="stop-color:#ef4567;stop-opacity:0"/>
    </linearGradient>
  </defs>
  
  <!-- 数据点 -->
  <circle cx="300" cy="100" r="4" fill="#ef4567"/>
</svg> 